D:\school\WTK\thesis\model\3dpredictsim\Results\debug_batch\Pog_s1_tmt_bCst_d05_k800_ig24_act_TTC_GRF.mot
nRows=22
nColumns=19

name D:\school\WTK\thesis\model\3dpredictsim\Results\debug_batch\Pog_s1_tmt_bCst_d05_k800_ig24_act_TTC_GRF.mot
datacolumns 19
datarows 22
range 0.0000000000 0.2626071365
endheader
time 	ground_force_vx	ground_force_vy	ground_force_vz	ground_force_px	ground_force_py	ground_force_pz	1_ground_force_vx	1_ground_force_vy	1_ground_force_vz	1_ground_force_px	1_ground_force_py	1_ground_force_pz	ground_torque_x	ground_torque_y	ground_torque_z	1_ground_torque_x	1_ground_torque_y	1_ground_torque_z
        0.0000000000	      -39.2578002012	       31.5640558499	       10.7051141752	        0.2056108479	        0.0000000000	        0.0507583644	      110.9629079967	      432.3726289626	       -0.9006611835	       -0.3564482619	        0.0000000000	       -0.0355879455	        0.0000000000	        0.0000000000	        0.0000000000	        0.0000000000	        0.0000000000	        0.0000000000	
        0.0125051017	     -114.1868361676	      119.7196614311	       45.7613475698	        0.2132984547	        0.0000000000	        0.0488159844	       74.8157404988	      327.1269479779	       -6.7434935550	       -0.3485174723	        0.0000000000	       -0.0325227305	        0.0000000000	        0.0000000000	        0.0000000000	        0.0000000000	        0.0000000000	        0.0000000000	
        0.0250102035	      -62.2198119765	      314.5911914508	       15.2864783635	        0.2185595465	        0.0000000000	        0.0468154855	       38.7281207506	      212.5735807828	      -13.5547819139	       -0.3342276555	        0.0000000000	       -0.0265988590	        0.0000000000	        0.0000000000	        0.0000000000	        0.0000000000	        0.0000000000	        0.0000000000	
        0.0375153052	      -65.1537845430	      529.0221584714	       -5.7913655451	        0.2215198444	        0.0000000000	        0.0466499161	       22.3467001844	      163.0297289860	      -14.3170331756	       -0.3283301812	        0.0000000000	       -0.0237763006	        0.0000000000	        0.0000000000	        0.0000000000	        0.0000000000	        0.0000000000	        0.0000000000	
        0.0500204070	     -113.6069273989	      743.9778972180	      -14.5803789437	        0.2298944644	        0.0000000000	        0.0485429348	       17.3277051736	      120.8314253978	      -17.0387972608	       -0.3279392446	        0.0000000000	       -0.0240663329	        0.0000000000	        0.0000000000	        0.0000000000	        0.0000000000	        0.0000000000	        0.0000000000	
        0.0625255087	     -148.9806382701	      886.3037171767	      -20.6521163613	        0.2382480570	        0.0000000000	        0.0505011635	        5.0740345489	       68.8906151879	      -15.3856162505	       -0.3279572606	        0.0000000000	       -0.0243113194	        0.0000000000	        0.0000000000	        0.0000000000	        0.0000000000	        0.0000000000	        0.0000000000	
        0.0750306104	     -155.8503877828	      912.6781510744	      -20.8318295976	        0.2436734629	        0.0000000000	        0.0516421125	       -6.8978198938	       12.7809343042	       -3.3706746214	       -0.3308653573	        0.0000000000	       -0.0238599606	        0.0000000000	        0.0000000000	        0.0000000000	        0.0000000000	        0.0000000000	        0.0000000000	
        0.0875357122	     -142.1275707091	      879.5379404634	      -19.8117980686	        0.2475941300	        0.0000000000	        0.0523094983	        0.0026362675	       -0.0022220800	       -0.0001137344	        0.0000000000	        0.0000000000	        0.0000000000	        0.0000000000	        0.0000000000	        0.0000000000	        0.0000000000	        0.0000000000	        0.0000000000	
        0.1000408139	     -123.3760039644	      821.4728960307	      -18.5036443337	        0.2511509850	        0.0000000000	        0.0526921444	        0.0040667349	       -0.0029313961	       -0.0002635051	        0.0000000000	        0.0000000000	        0.0000000000	        0.0000000000	        0.0000000000	        0.0000000000	        0.0000000000	        0.0000000000	        0.0000000000	
        0.1125459156	     -108.1775791890	      769.6434200497	      -17.7319510948	        0.2548690156	        0.0000000000	        0.0528188766	        0.0227488391	       -0.0143571551	       -0.0017400622	        0.0000000000	        0.0000000000	        0.0000000000	        0.0000000000	        0.0000000000	        0.0000000000	        0.0000000000	        0.0000000000	        0.0000000000	
        0.1250510174	      -94.8929827915	      729.3947139913	      -17.4927330757	        0.2588186154	        0.0000000000	        0.0527973960	       -0.2113685330	        0.1213890153	        0.0169123508	        0.0000000000	        0.0000000000	        0.0000000000	        0.0000000000	        0.0000000000	        0.0000000000	        0.0000000000	        0.0000000000	        0.0000000000	
        0.1375561191	      -84.1669678901	      699.8200541115	      -17.4997194986	        0.2633945000	        0.0000000000	        0.0526238065	       -0.2102031717	        0.1122361467	        0.0169642610	        0.0000000000	        0.0000000000	        0.0000000000	        0.0000000000	        0.0000000000	        0.0000000000	        0.0000000000	        0.0000000000	        0.0000000000	
        0.1500612209	      -74.2504187931	      675.0431436430	      -18.2904471534	        0.2681845673	        0.0000000000	        0.0523595093	       -0.1228811289	        0.0623451766	        0.0094775781	        0.0000000000	        0.0000000000	        0.0000000000	        0.0000000000	        0.0000000000	        0.0000000000	        0.0000000000	        0.0000000000	        0.0000000000	
        0.1625663226	      -64.6335978139	      651.8490854914	      -19.0439037238	        0.2727584048	        0.0000000000	        0.0521488627	       -0.0788976750	        0.0383025731	        0.0059367621	        0.0000000000	        0.0000000000	        0.0000000000	        0.0000000000	        0.0000000000	        0.0000000000	        0.0000000000	        0.0000000000	        0.0000000000	
        0.1750714243	      -55.6413361711	      631.6112458043	      -19.3320266842	        0.2770894639	        0.0000000000	        0.0520263616	       -0.0632847159	        0.0295984843	        0.0046899632	        0.0000000000	        0.0000000000	        0.0000000000	        0.0000000000	        0.0000000000	        0.0000000000	        0.0000000000	        0.0000000000	        0.0000000000	
        0.1875765261	      -47.3907253608	      614.2130182108	      -19.8132996991	        0.2813219995	        0.0000000000	        0.0519588399	       -0.0635482749	        0.0288070399	        0.0046321839	        0.0000000000	        0.0000000000	        0.0000000000	        0.0000000000	        0.0000000000	        0.0000000000	        0.0000000000	        0.0000000000	        0.0000000000	
        0.2000816278	      -40.0802472598	      600.3357285592	      -19.9310457220	        0.2856064853	        0.0000000000	        0.0519214640	       -0.0777350738	        0.0343045908	        0.0055450101	        0.0000000000	        0.0000000000	        0.0000000000	        0.0000000000	        0.0000000000	        0.0000000000	        0.0000000000	        0.0000000000	        0.0000000000	
        0.2125867296	      -33.7443259225	      589.9606482809	      -19.7664621847	        0.2899599826	        0.0000000000	        0.0518883179	       -0.1124917925	        0.0484336212	        0.0078627561	        0.0000000000	        0.0000000000	        0.0000000000	        0.0000000000	        0.0000000000	        0.0000000000	        0.0000000000	        0.0000000000	        0.0000000000	
        0.2250918313	      -29.1098403359	      582.7819197643	      -19.4248064642	        0.2942742013	        0.0000000000	        0.0518498953	       -0.1827618927	        0.0769147803	        0.0124157320	        0.0000000000	        0.0000000000	        0.0000000000	        0.0000000000	        0.0000000000	        0.0000000000	        0.0000000000	        0.0000000000	        0.0000000000	
        0.2375969330	      -24.3988318144	      578.7374122725	      -19.3600655128	        0.2988532529	        0.0000000000	        0.0517645888	       -0.3133182518	        0.1292066441	        0.0205606753	        0.0000000000	        0.0000000000	        0.0000000000	        0.0000000000	        0.0000000000	        0.0000000000	        0.0000000000	        0.0000000000	        0.0000000000	
        0.2501020348	      -20.4283038173	      576.0635621946	      -19.7008031486	        0.3038001758	        0.0000000000	        0.0516007420	       -0.5324595761	        0.2157261939	        0.0336305424	        0.0000000000	        0.0000000000	        0.0000000000	        0.0000000000	        0.0000000000	        0.0000000000	        0.0000000000	        0.0000000000	        0.0000000000	
        0.2626071365	      -16.9041992442	      573.9378127847	      -19.9430345919	        0.3087926859	        0.0000000000	        0.0513948199	       -0.8529371913	        0.3404487845	        0.0518245646	        0.0000000000	        0.0000000000	        0.0000000000	        0.0000000000	        0.0000000000	        0.0000000000	        0.0000000000	        0.0000000000	        0.0000000000	
